<?xml version="1.0" encoding="utf-8"?>
<!-- Generator: Adobe Illustrator 26.1.0, SVG Export Plug-In . SVG Version: 6.00 Build 0)  -->
<svg version="1.1" id="Layer_1" xmlns="http://www.w3.org/2000/svg" xmlns:xlink="http://www.w3.org/1999/xlink" x="0px" y="0px"
	 width="283.5px" height="283.5px" viewBox="0 0 283.5 283.5" style="enable-background:new 0 0 283.5 283.5;" xml:space="preserve"
	>
<style type="text/css">
	.st0{fill-rule:evenodd;clip-rule:evenodd;}
	.st1{fill:#ED1C24;}
	.st2{fill-rule:evenodd;clip-rule:evenodd;fill:#FFFFFF;}
	.st3{fill-rule:evenodd;clip-rule:evenodd;fill:#ED1C24;}
	.st4{fill:none;stroke:#FFFFFF;stroke-width:0.7087;stroke-miterlimit:22.9256;}
	.st5{fill:#FFFFFF;}
</style>
<g>
	<polygon class="st0" points="0,0 283.5,0 283.5,283.5 0,283.5 0,0 	"/>
	<path class="st1" d="M65.5,117l21.1,12.2v25.2l-21.8,12.6L43,154.3v-25.2l21.8-12.6L65.5,117L65.5,117z M74.3,125.3l-9.5-5.5
		l-9.5,5.5l0,0l-9.5,5.5v21.9l9.5,5.5l0,0l9.5,5.5l9.5-5.5l0,0l9.5-5.5v-21.9L74.3,125.3L74.3,125.3L74.3,125.3z"/>
	<polygon class="st2" points="59.7,150.9 51.1,150.9 69,132.2 77.5,132.2 59.7,150.9 	"/>
	<polygon class="st2" points="69,150.9 77.5,150.9 69,142 64.7,146.5 69,150.9 	"/>
	<polygon class="st3" points="63.9,136.7 59.7,132.2 51.1,132.2 59.7,141.2 63.9,136.7 	"/>
	<line class="st4" x1="97.8" y1="123.4" x2="97.8" y2="159.9"/>
	<polygon class="st5" points="128.7,141.3 123.7,141.3 119.7,137.5 115.7,141.3 110.8,141.3 117.3,135.2 111.2,129.4 116,129.4 
		119.8,132.9 123.6,129.4 128.3,129.4 122.2,135.2 128.7,141.3 	"/>
	<polygon class="st5" points="147.8,129.4 147.8,132.1 138.8,132.1 138.8,134.1 147.8,134.1 147.8,136.5 138.8,136.5 138.8,141.3 
		135.2,141.3 135.2,129.4 147.8,129.4 	"/>
	<path class="st5" d="M161.1,129.4c1.4,0,2.4,0.3,3.1,0.8c0.6,0.6,0.9,1.5,0.9,2.9c0,0.5,0,1-0.1,1.4c-0.1,0.4-0.2,0.7-0.4,1
		c-0.2,0.3-0.4,0.5-0.6,0.6c-0.2,0.1-0.7,0.3-1.5,0.6c0.8,0.1,1.4,0.3,1.8,0.6c0.4,0.3,0.6,0.9,0.6,1.6v2.3h-3.7v-1.1
		c0-0.6-0.1-1-0.2-1.4c-0.1-0.3-0.6-0.5-1.4-0.5h-6v3H150v-11.9H161.1L161.1,129.4z M159.6,135.3c0.8,0,1.3-0.1,1.5-0.3
		c0.2-0.2,0.3-0.7,0.3-1.4c0-0.4,0-0.7-0.1-0.9c-0.1-0.2-0.2-0.3-0.5-0.4c-0.2-0.1-0.4-0.1-0.6-0.1c-0.2,0-0.3,0-0.6,0h-0.3h-5.7
		v3.1h5.5H159.6L159.6,135.3z"/>
	<polygon class="st5" points="181.3,129.4 181.3,132.1 171.6,132.1 171.6,134.1 180.7,134.1 180.7,136.5 171.6,136.5 171.6,138.6 
		181.3,138.6 181.3,141.3 168,141.3 168,129.4 181.3,129.4 	"/>
	<polygon class="st5" points="184,141.3 184,129.4 187.6,129.4 187.6,141.3 184,141.3 	"/>
	<path class="st5" d="M206,134.6l0,2.5c0,1.5-0.3,2.5-0.8,3.3c-0.5,0.7-1.5,1.1-3,1.1l-1.9,0l-2.2,0l-1.9,0c-1.4,0-2.5-0.1-3.3-0.3
		c-0.8-0.2-1.4-0.6-1.9-1.2c-0.5-0.6-0.7-1.6-0.7-2.9l0-1.5c0-2.3,0.3-3.9,0.9-4.8c0.6-0.9,1.9-1.3,4-1.3l2.7-0.1l1,0l2.4,0.1
		c1.6,0,2.7,0.3,3.4,0.8c0.7,0.5,1.1,1.6,1.1,3.1v0.2h-3.5c0-0.3,0-0.5-0.1-0.7c-0.1-0.2-0.2-0.3-0.5-0.4c-0.2-0.1-0.4-0.1-0.7-0.2
		c-0.2,0-0.5,0-0.9,0l-4.2,0c-0.9,0-1.4,0.2-1.6,0.6c-0.2,0.4-0.3,1.1-0.3,2.1v1.1c0,0.8,0.1,1.4,0.3,1.8c0.2,0.4,0.5,0.6,1,0.7
		c0.4,0.1,0.7,0.1,1,0.1c0.2,0,0.5,0,0.9,0l3.2,0c0.6,0,1.1-0.1,1.4-0.3c0.4-0.2,0.5-0.6,0.5-1.1l0-0.3h-4.6v-2.2H206L206,134.6z"/>
	<polygon class="st5" points="224.3,129.4 224.3,141.3 220.6,141.3 220.6,136.7 212.4,136.7 212.4,141.3 208.8,141.3 208.8,129.4 
		212.4,129.4 212.4,133.7 220.6,133.7 220.6,129.4 224.3,129.4 	"/>
	<polygon class="st5" points="231.6,141.3 231.6,132.4 226.3,132.4 226.3,129.4 240.5,129.4 240.5,132.4 235.2,132.4 235.2,141.3 
		231.6,141.3 	"/>
	<path class="st1" d="M143,149.6h3.5c0,0.1,0,0.6,0,0.7c0,0.4,0,0.7-0.1,1c-0.1,0.3-0.2,0.5-0.3,0.7c-0.1,0.2-0.4,0.3-0.7,0.4
		c-0.3,0.1-0.6,0.1-1,0.1h-2c-0.5,0-0.9,0-1.2-0.1c-0.4-0.1-0.6-0.2-0.8-0.4c-0.2-0.2-0.3-0.4-0.4-0.8c-0.1-0.3-0.1-0.7-0.1-1.2
		v-0.3c0-0.5,0-0.9,0.1-1.2c0.1-0.4,0.2-0.6,0.3-0.9c0.1-0.2,0.4-0.4,0.7-0.5c0.3-0.1,0.7-0.1,1.1-0.1h1.2c0.6,0,1,0,1.6,0
		c0.3,0,0.5,0,0.7,0.1c0.2,0.1,0.4,0.2,0.5,0.4c0.1,0.2,0.2,0.3,0.3,0.6c0.1,0.2,0.1,0.4,0.1,0.7v0.3h-1.2v-0.3c0-0.3,0-0.5-0.1-0.6
		c-0.1,0-0.2-0.1-0.3-0.1c-0.2,0-0.3,0-0.6,0h-1.6l-1,0c-0.1,0-0.1,0-0.2,0c-0.1,0-0.1,0-0.2,0c-0.1,0-0.1,0-0.1,0
		c0,0-0.1,0-0.1,0.1l0,0c0,0,0,0.1-0.1,0.1c0,0.1,0,0.3,0,0.4l0,1.3c0,0.5,0,0.9,0.1,1.1c0,0,0.1,0.1,0.2,0.1
		c0.2,0.1,0.4,0.1,0.7,0.1c0.6,0,1.2,0,1.8,0l0.1,0c0.1,0,0.3,0,0.4,0l0.5,0c0.1,0,0.1,0,0.2,0c0,0,0.1,0,0.1,0c0,0,0.1,0,0.1-0.1
		c0,0,0,0,0.1-0.1c0-0.1,0.1-0.2,0.1-0.3c0-0.1,0-0.2,0-0.3h-2.6v-1.1H143L143,149.6z M155.6,148.8c0,0.2,0,0.4-0.1,0.6
		c0,0.2-0.1,0.3-0.2,0.5c-0.1,0.1-0.1,0.1-0.2,0.2c0.1,0.1,0.2,0.2,0.3,0.4c0.1,0.1,0.1,0.3,0.1,0.5v1.6h-1.2v-1.4
		c0-0.1,0-0.3,0-0.4c0-0.1,0-0.1-0.1-0.1c0,0-0.1-0.1-0.2-0.1c-0.1,0-0.3,0-0.4,0h-3v2h-1.2v-5.4h4.3c0.6,0,1.1,0.1,1.4,0.4
		c0.2,0.1,0.3,0.3,0.4,0.6C155.6,148.2,155.6,148.5,155.6,148.8L155.6,148.8z M154.5,148.8c0-0.3,0-0.4-0.1-0.5
		c-0.1,0-0.1-0.1-0.3-0.1c-0.1,0-0.3,0-0.5,0h-3v1.3h3c0.4,0,0.6,0,0.7-0.1c0,0,0.1-0.1,0.1-0.2C154.4,149.1,154.5,149,154.5,148.8
		L154.5,148.8z M160.5,147h2.2c1.1,0,1.8,0.2,2.1,0.5c0.2,0.2,0.3,0.4,0.4,0.8c0.1,0.3,0.1,0.8,0.1,1.3v0.3c0,0.4,0,0.7-0.1,1.1
		c0,0.2-0.1,0.4-0.2,0.6c-0.1,0.2-0.2,0.3-0.4,0.5c-0.2,0.1-0.3,0.2-0.6,0.3c-0.2,0.1-0.4,0.1-0.7,0.1c-0.8,0-1.6,0-2.4,0
		c-0.1,0-0.3,0-0.4,0c-0.1,0-0.3,0-0.4,0c-0.1,0-0.3,0-0.4-0.1c-0.1,0-0.3-0.1-0.4-0.1c-0.1-0.1-0.2-0.1-0.3-0.2
		c-0.1-0.1-0.2-0.2-0.3-0.3c-0.1-0.1-0.1-0.2-0.2-0.4c0-0.1-0.1-0.3-0.1-0.5l0-0.5l0-0.3c0-0.4,0-0.8,0-1.2c0-0.1,0-0.2,0-0.3
		c0-0.1,0-0.3,0.1-0.5c0-0.2,0.1-0.4,0.2-0.5c0.1-0.2,0.3-0.3,0.4-0.4c0.2-0.1,0.3-0.1,0.6-0.2C160.1,147.1,160.3,147,160.5,147
		L160.5,147z M160.6,151.5l1.3,0l0.6,0c0.2,0,0.4,0,0.5,0c0.2,0,0.3,0,0.5,0l0,0c0.1,0,0.1,0,0.2,0c0,0,0.1,0,0.1,0
		c0,0,0.1,0,0.1-0.1c0,0,0-0.1,0.1-0.1c0-0.1,0.1-0.2,0.1-0.3c0-0.1,0-0.3,0-0.5c0-0.5,0-1,0-1.5c0-0.1,0-0.2,0-0.2
		c0-0.1,0-0.2,0-0.2c0-0.1,0-0.1-0.1-0.1c0,0,0-0.1-0.1-0.1c0,0-0.1,0-0.1,0l-0.2,0l-0.2,0c-0.5,0-1.1,0-1.6,0l-1.1,0
		c-0.3,0-0.5,0-0.6,0c-0.1,0-0.2,0.1-0.3,0.1c0,0-0.1,0.1-0.1,0.2c0,0.1-0.1,0.3-0.1,0.6l0,0.7l0,0.4c0,0.3,0,0.5,0,0.7
		c0,0.2,0.1,0.3,0.1,0.4c0,0,0.1,0.1,0.2,0.1C160.2,151.4,160.4,151.5,160.6,151.5L160.6,151.5L160.6,151.5z M174.7,150.7
		c0,0.8-0.2,1.3-0.5,1.5c-0.2,0.1-0.4,0.2-0.7,0.2c-0.3,0-0.6,0.1-1,0.1c-0.8,0-1.5,0-2.4,0c-0.6,0-1-0.1-1.3-0.4
		c-0.1-0.1-0.3-0.3-0.3-0.5c-0.1-0.2-0.1-0.4-0.1-0.7v-3.8h1.2v3.7c0,0.2,0,0.3,0,0.4c0,0.1,0,0.1,0.1,0.1c0.1,0,0.2,0.1,0.3,0.1
		c0.1,0,0.3,0,0.5,0l1,0l1.1,0c0.2,0,0.4,0,0.5,0c0.1,0,0.2-0.1,0.3-0.1c0,0,0.1-0.1,0.1-0.1c0-0.1,0.1-0.2,0.1-0.4v-3.7h1.2V150.7
		L174.7,150.7z M183.9,148.8c0,0.3,0,0.6-0.1,0.8c0,0.1-0.1,0.2-0.1,0.3c-0.1,0.1-0.1,0.2-0.2,0.3c-0.1,0.1-0.2,0.1-0.3,0.2
		c-0.1,0.1-0.2,0.1-0.3,0.1c-0.1,0-0.2,0.1-0.4,0.1c-0.1,0-0.3,0-0.5,0H179v1.9h-1.2v-5.4h4.3c0.6,0,1,0.1,1.3,0.4
		c0.1,0.1,0.3,0.3,0.3,0.6C183.9,148.2,183.9,148.5,183.9,148.8L183.9,148.8z M182.7,148.8c0-0.1,0-0.3,0-0.4c0-0.1,0-0.1-0.1-0.2
		c0,0-0.1-0.1-0.1-0.1c-0.1,0-0.2,0-0.4,0H179v1.4h2.8c0.4,0,0.7,0,0.8-0.1c0,0,0.1-0.1,0.1-0.2C182.7,149.2,182.7,149,182.7,148.8
		L182.7,148.8z M189.5,152.5h-0.9v-5.4h1.2v5.4H189.5L189.5,152.5z M193,152.2v-5.2l1.4,0l4.1,4v-4h1.2v5.4h-1.4l-4.1-4v4H193V152.2
		L193,152.2z M207.2,152.6c-1,0-1.9,0.1-2.9,0c-0.5-0.1-0.9-0.2-1.2-0.5c-0.3-0.3-0.4-0.7-0.4-1.2c0-0.6,0-1.2,0-1.8l0-0.2
		c0-0.2,0.1-0.4,0.1-0.6c0-0.2,0.1-0.4,0.2-0.5c0.1-0.2,0.2-0.3,0.4-0.4c0.2-0.1,0.3-0.2,0.5-0.2c0.2,0,0.4-0.1,0.6-0.1
		c0.9-0.1,1.8-0.1,2.7,0c0.1,0,0.2,0,0.3,0c0.1,0,0.3,0,0.4,0.1c0.2,0,0.3,0.1,0.5,0.2c0.1,0.1,0.2,0.2,0.3,0.4
		c0.1,0.1,0.1,0.3,0.1,0.5c0,0.2,0,0.4,0,0.6v0.3h-1.2v-0.3c0-0.1,0-0.2,0-0.3c0-0.1,0-0.2,0-0.2c0,0,0-0.1,0-0.1l0,0
		c0,0-0.1,0-0.1,0c-0.1,0-0.2,0-0.3-0.1l-0.5,0l-0.3,0l-0.3,0l-0.8,0l-0.8,0c-0.2,0-0.3,0-0.4,0c0,0-0.1,0-0.1,0.1c0,0,0,0-0.1,0
		l0,0c0,0-0.1,0.1-0.1,0.1c0,0.1,0,0.1,0,0.2c0,0.2,0,0.5-0.1,0.7l0,0.8c0,0.3,0,0.5,0,0.7c0,0.2,0.1,0.3,0.1,0.4
		c0,0.1,0.1,0.1,0.2,0.1c0.1,0,0.3,0.1,0.6,0.1h2.2c0.2,0,0.4,0,0.5,0c0.1,0,0.2,0,0.3-0.1c0,0,0.1-0.1,0.1-0.1
		c0-0.1,0.1-0.2,0.1-0.4v-0.5h1.2v0.3c0,0.3,0,0.6-0.1,0.9c-0.1,0.3-0.2,0.5-0.3,0.6c-0.1,0.2-0.3,0.3-0.6,0.3
		C207.9,152.5,207.6,152.6,207.2,152.6L207.2,152.6z M211.3,152.5h-1v-1.4h1.3v1.4H211.3L211.3,152.5z"/>
	<polygon class="st1" points="110.8,149.3 135.2,149.3 135.2,150 110.8,150 110.8,149.3 	"/>
	<polygon class="st1" points="216.1,149.3 240.5,149.3 240.5,150 216.1,150 216.1,149.3 	"/>
</g>
</svg>
